<?xml version="1.0" encoding="UTF-8" standalone="no"?>
<svg width="30px" height="27px" viewBox="0 0 30 27" version="1.1" xmlns="http://www.w3.org/2000/svg" xmlns:xlink="http://www.w3.org/1999/xlink" xmlns:sketch="http://www.bohemiancoding.com/sketch/ns">
    <!-- Generator: Sketch 3.4.4 (17249) - http://www.bohemiancoding.com/sketch -->
    <title>Slice 1</title>
    <desc>Created with Sketch.</desc>
    <defs></defs>
    <g id="Page-1" stroke="none" stroke-width="1" fill="none" fill-rule="evenodd" sketch:type="MSPage">
        <g id="1452800974_icon-124-document-file-zip" sketch:type="MSLayerGroup" fill="#FFFFFF">
            <g id="Page-1" sketch:type="MSShapeGroup">
                <g id="icon-124-document-file-zip">
                    <path d="M19,10 L19,7 L19,7 L13,0 L2.00276013,0 C0.89666625,0 0,0.89833832 0,2.00732994 L0,24.9926701 C0,26.1012878 0.89092539,27 1.99742191,27 L17.0025781,27 C18.1057238,27 19,26.1017876 19,25.0092049 L19,23 L26.9931517,23 C28.6537881,23 30,21.6577357 30,20.0012144 L30,12.9987856 C30,11.3426021 28.6640085,10 26.9931517,10 L19,10 L19,10 L19,10 L19,10 Z M18,23 L18,25.0066023 C18,25.5550537 17.5523026,26 17.0000398,26 L1.9999602,26 C1.45470893,26 1,25.5543187 1,25.004543 L1,1.99545703 C1,1.45526288 1.44573523,1 1.9955775,1 L12,1 L12,5.99408095 C12,7.1134452 12.8944962,8 13.9979131,8 L18,8 L18,10 L10.0068483,10 C8.3462119,10 7,11.3422643 7,12.9987856 L7,20.0012144 C7,21.6573979 8.3359915,23 10.0068483,23 L18,23 L18,23 L18,23 L18,23 Z M13,1.5 L13,5.99121523 C13,6.54835167 13.4506511,7 13.9967388,7 L17.6999512,7 L13,1.5 L13,1.5 L13,1.5 Z M9.9945615,11 C8.8929956,11 8,11.9001762 8,12.992017 L8,20.007983 C8,21.1081436 8.9023438,22 9.9945615,22 L27.0054385,22 C28.1070044,22 29,21.0998238 29,20.007983 L29,12.992017 C29,11.8918564 28.0976562,11 27.0054385,11 L9.9945615,11 L9.9945615,11 L9.9945615,11 Z" id="document-file-zip"></path>
                </g>
            </g>
        </g>
        <text id="LOG" sketch:type="MSTextLayer" font-family="Source Sans Pro" font-size="10" font-weight="normal" sketch:alignment="middle" letter-spacing="0.119999997" fill="#FFFFFF">
            <tspan x="10.175" y="20">LO</tspan>
            <tspan x="21.655" y="20">G</tspan>
        </text>
    </g>
</svg>