<?xml version="1.0" encoding="UTF-8" standalone="no"?>
<svg width="30px" height="27px" viewBox="0 0 30 27" version="1.1" xmlns="http://www.w3.org/2000/svg" xmlns:xlink="http://www.w3.org/1999/xlink" xmlns:sketch="http://www.bohemiancoding.com/sketch/ns">
    <!-- Generator: Sketch 3.4.4 (17249) - http://www.bohemiancoding.com/sketch -->
    <title>log</title>
    <desc>Created with Sketch.</desc>
    <defs></defs>
    <g id="Page-1" stroke="none" stroke-width="1" fill="none" fill-rule="evenodd" sketch:type="MSPage">
        <g id="log" sketch:type="MSLayerGroup" fill="#FFFFFF">
            <g id="Page-1" sketch:type="MSShapeGroup">
                <g id="1452800974_icon-124-document-file-zip">
                    <g id="Page-1">
                        <g id="icon-124-document-file-zip">
                            <path d="M19,10 L19,7 L19,7 L13,0 L2.00276013,0 C0.89666625,0 0,0.89833832 0,2.00732994 L0,24.9926701 C0,26.1012878 0.89092539,27 1.99742191,27 L17.0025781,27 C18.1057238,27 19,26.1017876 19,25.0092049 L19,23 L26.9931517,23 C28.6537881,23 30,21.6577357 30,20.0012144 L30,12.9987856 C30,11.3426021 28.6640085,10 26.9931517,10 L19,10 L19,10 L19,10 L19,10 L19,10 Z M18,23 L18,25.0066023 C18,25.5550537 17.5523026,26 17.0000398,26 L1.9999602,26 C1.45470893,26 1,25.5543187 1,25.004543 L1,1.99545703 C1,1.45526288 1.44573523,1 1.9955775,1 L12,1 L12,5.99408095 C12,7.1134452 12.8944962,8 13.9979131,8 L18,8 L18,10 L10.0068483,10 C8.3462119,10 7,11.3422643 7,12.9987856 L7,20.0012144 C7,21.6573979 8.3359915,23 10.0068483,23 L18,23 L18,23 L18,23 L18,23 L18,23 Z M13,1.5 L13,5.99121523 C13,6.54835167 13.4506511,7 13.9967388,7 L17.6999512,7 L13,1.5 L13,1.5 L13,1.5 L13,1.5 Z M9.9945615,11 C8.8929956,11 8,11.9001762 8,12.992017 L8,20.007983 C8,21.1081436 8.9023438,22 9.9945615,22 L27.0054385,22 C28.1070044,22 29,21.0998238 29,20.007983 L29,12.992017 C29,11.8918564 28.0976562,11 27.0054385,11 L9.9945615,11 L9.9945615,11 L9.9945615,11 L9.9945615,11 Z" id="document-file-zip"></path>
                        </g>
                    </g>
                </g>
                <path d="M10.5999998,13.2400002 L11.4299998,13.2400002 L11.4299998,19.0900002 L14.2999998,19.0900002 L14.2999998,19.8000002 L10.5999998,19.8000002 L10.5999998,13.2400002 Z M17.6199998,19.9200002 C17.2066644,19.9200002 16.8283349,19.840001 16.4849998,19.6800002 C16.1416648,19.5199994 15.8466677,19.2916683 15.5999998,18.9950002 C15.3533319,18.698332 15.1616672,18.3383356 15.0249998,17.9150002 C14.8883325,17.4916647 14.8199998,17.0166695 14.8199998,16.4900002 C14.8199998,15.9633309 14.8883325,15.4916689 15.0249998,15.0750002 C15.1616672,14.6583314 15.3533319,14.3050016 15.5999998,14.0150002 C15.8466677,13.7249987 16.1416648,13.5033343 16.4849998,13.3500002 C16.8283349,13.1966661 17.2066644,13.1200002 17.6199998,13.1200002 C18.0333352,13.1200002 18.4116648,13.1983327 18.7549998,13.3550002 C19.0983349,13.5116676 19.3949986,13.7349987 19.6449998,14.0250002 C19.8950011,14.3150016 20.0883325,14.6683314 20.2249998,15.0850002 C20.3616672,15.5016689 20.4299998,15.9699976 20.4299998,16.4900002 C20.4299998,17.0166695 20.3616672,17.4916647 20.2249998,17.9150002 C20.0883325,18.3383356 19.8950011,18.698332 19.6449998,18.9950002 C19.3949986,19.2916683 19.0983349,19.5199994 18.7549998,19.6800002 C18.4116648,19.840001 18.0333352,19.9200002 17.6199998,19.9200002 L17.6199998,19.9200002 Z M17.6199998,19.1900002 C17.9133346,19.1900002 18.178332,19.1266675 18.4149998,19.0000002 C18.6516677,18.8733329 18.854999,18.691668 19.0249998,18.4550002 C19.1950007,18.2183323 19.326666,17.9350018 19.4199998,17.6050002 C19.5133336,17.2749985 19.5599998,16.9033356 19.5599998,16.4900002 C19.5599998,16.0833315 19.5133336,15.7166685 19.4199998,15.3900002 C19.326666,15.0633319 19.1950007,14.786668 19.0249998,14.5600002 C18.854999,14.3333324 18.6516677,14.1583341 18.4149998,14.0350002 C18.178332,13.9116662 17.9133346,13.8500002 17.6199998,13.8500002 C17.326665,13.8500002 17.0616677,13.9116662 16.8249998,14.0350002 C16.588332,14.1583341 16.3850007,14.3333324 16.2149998,14.5600002 C16.044999,14.786668 15.9133336,15.0633319 15.8199998,15.3900002 C15.726666,15.7166685 15.6799998,16.0833315 15.6799998,16.4900002 C15.6799998,16.9033356 15.726666,17.2749985 15.8199998,17.6050002 C15.9133336,17.9350018 16.044999,18.2183323 16.2149998,18.4550002 C16.3850007,18.691668 16.588332,18.8733329 16.8249998,19.0000002 C17.0616677,19.1266675 17.326665,19.1900002 17.6199998,19.1900002 L17.6199998,19.1900002 Z M21.4599998,16.5200002 C21.4599998,15.9933309 21.5349991,15.5200023 21.6849998,15.1000002 C21.8350006,14.6799981 22.0449985,14.323335 22.3149998,14.0300002 C22.5850012,13.7366654 22.9033313,13.5116676 23.2699998,13.3550002 C23.6366683,13.1983327 24.0399976,13.1200002 24.4799998,13.1200002 C24.9333354,13.1200002 25.311665,13.2049993 25.6149998,13.3750002 C25.9183347,13.545001 26.1666655,13.7299992 26.3599998,13.9300002 L25.8899998,14.4600002 C25.7233323,14.286666 25.5316676,14.1416674 25.3149998,14.0250002 C25.0983321,13.9083329 24.8233348,13.8500002 24.4899998,13.8500002 C24.1566648,13.8500002 23.8566678,13.9116662 23.5899998,14.0350002 C23.3233318,14.1583341 23.0966674,14.334999 22.9099998,14.5650002 C22.7233322,14.7950013 22.5783337,15.0733319 22.4749998,15.4000002 C22.371666,15.7266685 22.3199998,16.0933315 22.3199998,16.5000002 C22.3199998,16.9133356 22.3683327,17.2849985 22.4649998,17.6150002 C22.561667,17.9450018 22.7016656,18.2266657 22.8849998,18.4600002 C23.0683341,18.6933347 23.2949985,18.8733329 23.5649998,19.0000002 C23.8350012,19.1266675 24.1466647,19.1900002 24.4999998,19.1900002 C24.7333343,19.1900002 24.9549988,19.1550005 25.1649998,19.0850002 C25.3750009,19.0149998 25.5466658,18.9200008 25.6799998,18.8000002 L25.6799998,17.0900002 L24.2899998,17.0900002 L24.2899998,16.4000002 L26.4399998,16.4000002 L26.4399998,19.1600002 C26.2266654,19.3800013 25.9450016,19.5616661 25.5949998,19.7050002 C25.2449981,19.8483342 24.850002,19.9200002 24.4099998,19.9200002 C23.9766643,19.9200002 23.5800016,19.8433343 23.2199998,19.6900002 C22.859998,19.5366661 22.5500011,19.3150016 22.2899998,19.0250002 C22.0299985,18.7349987 21.8266672,18.3783356 21.6799998,17.9550002 C21.5333324,17.5316647 21.4599998,17.0533362 21.4599998,16.5200002 L21.4599998,16.5200002 Z" id="LOG"></path>
            </g>
        </g>
    </g>
</svg>