<?xml version="1.0" encoding="UTF-8" standalone="no"?>
<svg width="32px" height="32px" viewBox="0 0 32 32" version="1.1" xmlns="http://www.w3.org/2000/svg" xmlns:xlink="http://www.w3.org/1999/xlink" xmlns:sketch="http://www.bohemiancoding.com/sketch/ns">
    <!-- Generator: Sketch 3.5.2 (25235) - http://www.bohemiancoding.com/sketch -->
    <title>twitter</title>
    <desc>Created with Sketch.</desc>
    <defs></defs>
    <g id="Page-1" stroke="none" stroke-width="1" fill="none" fill-rule="evenodd" sketch:type="MSPage">
        <g id="twitter" sketch:type="MSLayerGroup">
            <rect id="Rectangle-2" fill="#FFFFFF" sketch:type="MSShapeGroup" x="4" y="4" width="24" height="24"></rect>
            <g id="Layer_1" fill="#598DCA" sketch:type="MSShapeGroup">
                <path d="M18.5973882,8.19349793 C16.8077375,8.84471487 15.6768204,10.5243489 15.8052871,12.3625163 L15.8483371,13.0718166 L15.1322035,12.9850332 C12.5266524,12.6522498 10.2497848,11.5233826 8.31663404,9.62644852 L7.37158366,8.68549814 L7.12831689,9.38044842 C6.61308335,10.9302491 6.94245015,12.5654664 8.01596726,13.6656335 C8.58860082,14.2738004 8.45945077,14.3605838 7.4720337,13.998417 C7.12831689,13.8829336 6.8276501,13.7961502 6.79895009,13.8392002 C6.69918338,13.9410169 7.04221686,15.2578008 7.31418364,15.7791844 C7.68660045,16.503518 8.44510076,17.2128183 9.27603444,17.6323851 L9.97781806,17.9651686 L9.14756772,17.9795186 C8.34601739,17.9795186 8.31731738,17.9938686 8.40341741,18.2979521 C8.6897342,19.2389024 9.82065133,20.2379362 11.0807185,20.6725364 L11.9683689,20.9759365 L11.1955186,21.4392367 C10.0502514,22.105487 8.7040842,22.4813204 7.35791699,22.5107038 C6.71285006,22.5250538 6.18326651,22.5831371 6.18326651,22.6261872 C6.18326651,22.7710539 7.93055055,23.5814876 8.94666764,23.899921 C11.9963855,24.8408714 15.6194204,24.4356546 18.3397715,22.8291372 C20.2729223,21.6852368 22.2053897,19.4124692 23.1080734,17.212135 C23.5952903,16.0395345 24.0818238,13.8966003 24.0818238,12.8695498 C24.0818238,12.2032996 24.1248738,12.1165162 24.9264242,11.3204325 C25.399291,10.856449 25.8427745,10.3507821 25.9288746,10.2059154 C26.0723746,9.93053198 26.0573413,9.93053198 25.327541,10.1758487 C24.1105238,10.6111323 23.9383238,10.5530489 24.5403407,9.90183197 C24.9838242,9.43853178 25.5140911,8.59871477 25.5140911,8.35203133 C25.5140911,8.30966465 25.2995243,8.38073134 25.0555742,8.51124806 C24.7979574,8.65611479 24.2253239,8.87341488 23.795507,9.00324827 L23.0226567,9.2499317 L22.3208731,8.77159817 C21.9341063,8.51124806 21.3908561,8.22151461 21.1038559,8.13473124 C20.3733723,7.93314783 19.2561218,7.96184784 18.5973882,8.19349793 L18.5973882,8.19349793 Z M0,0 L32,0 L32,32 L0,32 L0,0 L0,0 Z" id="Shape"></path>
            </g>
        </g>
    </g>
</svg>