<?xml version="1.0" encoding="UTF-8" standalone="no"?>
<svg width="32px" height="32px" viewBox="0 0 32 32" version="1.1" xmlns="http://www.w3.org/2000/svg" xmlns:xlink="http://www.w3.org/1999/xlink" xmlns:sketch="http://www.bohemiancoding.com/sketch/ns">
    <!-- Generator: Sketch 3.5.2 (25235) - http://www.bohemiancoding.com/sketch -->
    <title>youtube</title>
    <desc>Created with Sketch.</desc>
    <defs></defs>
    <g id="Page-1" stroke="none" stroke-width="1" fill="none" fill-rule="evenodd" sketch:type="MSPage">
        <g id="youtube" sketch:type="MSLayerGroup">
            <rect id="Rectangle-2" fill="#FFFFFF" sketch:type="MSShapeGroup" x="4" y="4" width="24" height="24"></rect>
            <g id="Layer_1" fill="#CF3427" sketch:type="MSShapeGroup">
                <path d="M21.6408626,20.0307489 C21.4700837,20.0307489 21.3472211,20.0782619 21.2722749,20.1793793 C21.1979431,20.2737961 21.1616987,20.4376551 21.1616987,20.6642555 L21.1616987,21.2100459 L22.1095832,21.2100459 L22.1095832,20.6642555 C22.1095832,20.4382642 22.0714958,20.2744053 21.9959354,20.1793793 C21.9246751,20.0782619 21.8036555,20.0307489 21.6408626,20.0307489 L21.6408626,20.0307489 Z M17.9439285,20.0112564 C18.0876777,20.0112564 18.2000969,20.0587694 18.2781146,20.1519679 C18.3536751,20.2457756 18.3917625,20.3852689 18.3917625,20.5680113 L18.3917625,23.3597046 C18.3917625,23.533919 18.3592039,23.6563563 18.2977726,23.7318898 C18.2363414,23.8092507 18.1405086,23.8476266 18.0090457,23.8476266 C17.9181274,23.8476266 17.8327379,23.8269158 17.75042,23.7885399 C17.6674878,23.7507732 17.5820983,23.6849859 17.4954802,23.5978788 L17.4954802,20.2287197 C17.5685834,20.1544045 17.642301,20.0989727 17.7166328,20.0636425 C17.7909646,20.0277032 17.8665251,20.0112564 17.9439285,20.0112564 L17.9439285,20.0112564 Z M21.162313,22.0512697 L21.162313,23.0703626 C21.162313,23.3554406 21.1973288,23.5521932 21.2667461,23.663666 C21.339235,23.7733114 21.459026,23.8275249 21.6304193,23.8275249 C21.8079557,23.8275249 21.9320468,23.7812302 22.0026928,23.6880316 C22.0727245,23.5948331 22.1101975,23.3895525 22.1101975,23.0709718 L22.1101975,22.8248788 L23.2128889,22.8248788 L23.2128889,23.102038 C23.2128889,23.6569654 23.079583,24.0748362 22.8092854,24.3568685 C22.5420594,24.6358551 22.1402989,24.7747392 21.6064611,24.7747392 C21.1266828,24.7747392 20.7476519,24.6273271 20.4718254,24.3294571 C20.1966133,24.0334146 20.05655,23.624681 20.05655,23.1026471 L20.05655,20.6746109 C20.05655,20.2067906 20.2095139,19.8230318 20.5123701,19.5282075 C20.8152263,19.2333832 21.2053149,19.085362 21.6863217,19.085362 C22.1771576,19.085362 22.5543456,19.2224187 22.8185001,19.495923 C23.0820403,19.7688182 23.2128889,20.1617142 23.2128889,20.6746109 L23.2128889,22.0530971 L21.162313,22.0530971 L21.162313,22.0512697 Z M19.2425856,24.389153 C19.0761069,24.5938244 18.8316104,24.6943326 18.5133964,24.6943326 C18.3026871,24.6943326 18.1165504,24.6565659 17.9531432,24.5779867 C17.7891217,24.4987984 17.6343149,24.3775793 17.4948659,24.2112838 L17.4948659,24.6261088 L16.4112182,24.6261088 L16.4112182,17.2969239 L17.4948659,17.2969239 L17.4948659,19.6567363 C17.640458,19.4928773 17.7928076,19.366176 17.9543718,19.2815054 C18.1183933,19.1956165 18.2824148,19.1529766 18.4488936,19.1529766 C18.7892228,19.1529766 19.0478485,19.2681043 19.2259992,19.4971413 C19.4066071,19.7280058 19.4950682,20.066079 19.4950682,20.5083154 L19.4950682,23.5089442 C19.4950682,23.8914847 19.4109073,24.1844816 19.2425856,24.389153 L19.2425856,24.389153 Z M14.5338785,24.6261088 L14.5338785,24.0315872 C14.3342268,24.2514871 14.1296607,24.4190009 13.9140369,24.5323011 C13.6996418,24.6486471 13.4926184,24.704688 13.2911238,24.704688 C13.0423271,24.704688 12.8580333,24.6254997 12.7302563,24.4634682 C12.6067794,24.3014367 12.5428909,24.0626534 12.5428909,23.7391995 L12.5428909,19.2181547 L13.6142523,19.2181547 L13.6142523,23.3664052 C13.6142523,23.4949339 13.6369819,23.5869142 13.6799838,23.6435643 C13.7272858,23.7020419 13.8003891,23.7300624 13.8999077,23.7300624 C13.9785398,23.7300624 14.079287,23.6922956 14.1996923,23.6155439 C14.3207119,23.5394012 14.4300596,23.4437661 14.5326498,23.3262019 L14.5326498,19.2181547 L15.6040113,19.2181547 L15.6040113,24.6261088 L14.5338785,24.6261088 L14.5338785,24.6261088 Z M10.8222009,18.3617024 L10.8222009,24.6261088 L9.6132334,24.6261088 L9.6132334,18.3617024 L8.36372128,18.3617024 L8.36372128,17.2969239 L12.071713,17.2969239 L12.071713,18.3617024 L10.8222009,18.3617024 L10.8222009,18.3617024 Z M15.7846192,14.9377207 C15.7846192,14.9365024 23.2055172,14.9486852 24.0864416,15.8209752 C24.9704377,16.6944834 24.9802667,21.0065928 24.9802667,21.0315676 C24.9802667,21.0315676 24.9728949,25.3668243 24.0864416,26.2433783 C23.2055172,27.11445 15.7846192,27.1333333 15.7846192,27.1333333 C15.7846192,27.1333333 8.36433559,27.11445 7.48156818,26.2427691 C6.59818646,25.3692609 6.59634352,21.0638521 6.59634352,21.0309584 C6.59634352,21.0065928 6.59880077,16.6938743 7.48156818,15.820366 C8.36494991,14.9480761 15.7846192,14.9365024 15.7846192,14.9377207 L15.7846192,14.9377207 Z M21.6365624,12.6692795 L20.4288236,12.6692795 L20.4288236,12.0114071 C20.2088996,12.2532361 19.9766894,12.4396333 19.7346502,12.5651163 C19.4938396,12.6918177 19.261015,12.7551683 19.0343336,12.7551683 C18.7529784,12.7551683 18.5447264,12.6662337 18.4034344,12.4883646 C18.2627568,12.3111045 18.1914965,12.045519 18.1914965,11.6897807 L18.1914965,6.71127099 L19.3967781,6.71127099 L19.3967781,11.2780013 C19.3967781,11.4187129 19.4244222,11.5210486 19.4747959,11.5837901 C19.5239409,11.6471408 19.6074874,11.6788161 19.7199066,11.6788161 C19.8077534,11.6788161 19.9207869,11.6373945 20.05655,11.5533331 C20.1916988,11.4698808 20.3164043,11.3632811 20.4282092,11.2329249 L20.4282092,6.71127099 L21.6359481,6.71127099 L21.6359481,12.6692795 L21.6365624,12.6692795 Z M15.0800025,11.6538413 C15.165392,11.7433851 15.2882545,11.7872432 15.4485901,11.7872432 C15.6119973,11.7872432 15.741003,11.7421668 15.8380644,11.6514048 C15.9345115,11.5588153 15.9824279,11.4333323 15.9824279,11.2749556 L15.9824279,8.03006133 C15.9824279,7.89970515 15.9332829,7.79432375 15.8343785,7.71391713 C15.7360885,7.63411966 15.6070828,7.59452549 15.4485901,7.59452549 C15.3005408,7.59452549 15.1813641,7.63411966 15.0886029,7.71391713 C14.9976846,7.79432375 14.9503825,7.89970515 14.9503825,8.03006133 L14.9503825,11.2749556 C14.9503825,11.4375963 14.994613,11.5630793 15.0800025,11.6538413 L15.0800025,11.6538413 Z M14.1960065,6.97259249 C14.5203636,6.69908817 14.9583686,6.56142229 15.5057212,6.56142229 C16.0045432,6.56142229 16.4149041,6.70578872 16.734961,6.99513071 C17.0525607,7.28325442 17.212282,7.65483045 17.212282,8.10803138 L17.212282,11.1854119 C17.212282,11.6946538 17.0556323,12.093032 16.7441757,12.3842014 C16.4290333,12.6741526 15.9996287,12.8191281 15.4504331,12.8191281 C14.9233528,12.8191281 14.5000913,12.6692795 14.1824916,12.3708003 C13.8673491,12.0717121 13.7082421,11.6690699 13.7082421,11.1628737 L13.7082421,8.07574691 C13.7076278,7.61279972 13.8698064,7.24548768 14.1960065,6.97259249 L14.1960065,6.97259249 Z M10.4204403,4.59511503 L9.05113724,4.59511503 L10.669237,9.47007074 L10.669237,12.6692795 L12.0287111,12.6692795 L12.0287111,9.31900376 L13.6099521,4.59511503 L12.2277484,4.59511503 L11.3885972,7.82234424 L11.3032078,7.82234424 L10.4204403,4.59511503 L10.4204403,4.59511503 Z M0,0 L32,0 L32,32 L0,32 L0,0 L0,0 Z" id="Shape"></path>
            </g>
        </g>
    </g>
</svg>